<svg 
          width="190.02272033691406" 
          height="310.30120849609375" fill="none" 
          xmlns="http://www.w3.org/2000/svg">
          <path d="M 181.9519500732422 140.42782592773438 C 176.71187543869019 125.27365112304688 169.09427738189697 111.67201709747314 159.5757293701172 100.47392272949219 L 151.72109985351562 91.2137680053711 C 151.454425573349 90.90797108411789 151.13342148065567 90.6909610927105 150.78623962402344 90.581787109375 C 150.4390577673912 90.4726131260395 150.0763135254383 90.47462509572506 149.72987365722656 90.5876235961914 C 149.38343378901482 90.70062209665775 149.06387734413147 90.92116251587868 148.79925537109375 91.22988891601562 C 148.53463339805603 91.53861531615257 148.3330338522792 91.92608731985092 148.212158203125 92.35829162597656 L 144.70321655273438 105.29474639892578 C 142.51687788963318 113.41038131713867 138.49511241912842 121.69942951202393 132.79983520507812 129.84974670410156 C 132.42194950580597 130.3699796795845 131.990086466074 130.5087137967348 131.69317626953125 130.54339599609375 C 131.3962660729885 130.5780781954527 130.93737876415253 130.50871363282204 130.53250122070312 130.02316284179688 C 130.15461552143097 129.60697641968727 129.96568394638598 128.98269325494766 129.99267578125 128.35841369628906 C 130.99137371778488 107.47972869873047 126.1328535079956 83.93050765991211 115.4980697631836 58.30036163330078 C 106.69873142242432 37.00549125671387 94.4714241027832 20.392720222473145 79.19404602050781 8.808865547180176 L 68.04641723632812 0.3810931146144867 C 66.588858127594 -0.7287372648715973 64.7264204248786 0.7279133796691895 64.8073959350586 2.9128921031951904 L 65.40121459960938 19.560348510742188 C 65.80609214305878 30.93610954284668 64.78040432929993 40.99394989013672 62.351139068603516 49.352359771728516 C 59.38203716278076 59.583608627319336 55.117329120635986 69.08652591705322 49.66497802734375 77.61834716796875 C 45.87054085731506 83.54772520065308 41.56988525390625 88.91083860397339 36.84385681152344 93.60684967041016 C 25.461549758911133 104.8496208190918 16.206257820129395 119.2554988861084 9.77104377746582 135.7457275390625 C 3.351681709289551 152.37976455688477 0.00783197395503521 170.69354629516602 0 189.26034545898438 C 1.5343081961730932e-14 205.63034439086914 2.510240077972412 221.48010349273682 7.4767374992370605 236.42813110351562 C 12.272277355194092 250.82007789611816 19.192779541015625 263.8816976547241 27.85557746887207 274.8907165527344 C 36.600932121276855 285.9890203475952 46.749860763549805 294.72889375686646 58.05944061279297 300.79827880859375 C 69.77389717102051 307.1104393005371 82.1901388168335 310.30120849609375 95.01126098632812 310.30120849609375 C 107.83238315582275 310.30120849609375 120.24863243103027 307.1104555130005 131.9630889892578 300.8329772949219 C 143.24481201171875 294.7991466522217 153.50379848480225 285.9994258880615 162.1669464111328 274.9253845214844 C 170.9123010635376 263.82708072662354 177.76822137832642 250.8559274673462 182.5457763671875 236.4628143310547 C 187.50479078292847 221.55566310882568 190.0487542487681 205.50683784484863 190.02252197265625 189.29501342773438 C 190.02252197265622 172.3701000213623 187.32332515716553 155.9307689666748 181.9519500732422 140.42782592773438 Z M 149.2648468017578 258.1045227050781 C 134.77023124694824 276.55545234680176 115.52505493164062 286.6826477050781 95.01126098632812 286.6826477050781 C 74.49746704101562 286.6826477050781 55.25228691101074 276.55545234680176 40.75767135620117 258.1045227050781 C 26.317039489746094 239.68827629089355 18.354448318481445 215.27198219299316 18.354448318481445 189.29501342773438 C 18.354448318481445 174.20825672149658 20.99965000152588 159.74580097198486 26.209074020385742 146.2891082763672 C 31.283538818359375 133.1445541381836 38.8412504196167 121.38729000091553 48.01847457885742 112.33523559570312 C 53.87133264541626 106.58469343185425 59.179898262023926 99.97315645217896 63.835689544677734 92.6357421875 C 70.58364820480347 82.05767154693604 75.87405514717102 70.26571846008301 79.5449447631836 57.60671615600586 C 81.0507253408432 52.384888648986816 82.14486455917358 46.98208141326904 82.81094360351562 41.479496002197266 C 89.3159761428833 49.17894458770752 94.76833581924438 58.47377300262451 99.3299560546875 69.36398315429688 C 108.34522914886475 91.07503890991211 112.50196242332458 110.39303398132324 111.69220733642578 126.8323974609375 C 111.49874620139599 130.7041847705841 111.99088609218597 134.5819571018219 113.13160705566406 138.1741943359375 C 114.27232801914215 141.7664315700531 116.03196239471436 144.97965359687805 118.27822875976562 147.5723419189453 C 120.22484970092773 149.83175134658813 122.50145626068115 151.5716576576233 124.97582244873047 152.69097900390625 C 127.45018863677979 153.8103003501892 130.07297110557556 154.28673462569714 132.6918487548828 154.0926055908203 C 138.00924062728882 153.7457835972309 142.8947651386261 150.72844076156616 146.4576873779297 145.63015747070312 C 150.04760146141052 140.46251010894775 153.151673078537 135.19080448150635 155.74288940429688 129.8150634765625 C 159.52174639701843 136.02317714691162 162.67979216575623 142.7862114906311 165.19003295898438 150.06947326660156 C 169.48173475265503 162.4857006072998 171.66807556152344 175.6995906829834 171.66807556152344 189.29501342773438 C 171.66807556152344 215.27198219299316 163.7054786682129 239.72295761108398 149.2648468017578 258.1045227050781 Z" fill="rgb(255,255,255)"/>
        </svg>